<?xml version="1.0" encoding="utf-8"?>
<!-- Generator: Adobe Illustrator 24.0.0, SVG Export Plug-In . SVG Version: 6.00 Build 0)  -->
<svg version="1.1" xmlns="http://www.w3.org/2000/svg" xmlns:xlink="http://www.w3.org/1999/xlink" x="0px" y="0px"
	 viewBox="0 0 500 500" style="enable-background:new 0 0 500 500;" xml:space="preserve">
<style type="text/css">
	.st0{fill:#4A86C6;}
	.st1{fill:#EE2930;}
	.st2{fill:#FFFFFF;}
</style>
<g id="Layer_2">
</g>
<g id="Layer_1">
	<g>
		<path d="M462.58,237.31L262.69,37.43c-7-7-18.38-7-25.38,0L37.42,237.31c-6.99,6.99-6.99,18.38,0,25.37l199.89,199.89
			c3.5,3.5,8.1,5.25,12.69,5.25c4.6,0,9.19-1.75,12.69-5.25l199.89-199.89C469.57,255.69,469.57,244.31,462.58,237.31z
			 M459.04,259.15L259.15,459.05c-5.04,5.04-13.25,5.04-18.3,0L40.96,259.15c-5.05-5.05-5.05-13.26,0-18.31L240.85,40.95
			c5.04-5.04,13.26-5.04,18.3,0l199.89,199.89C464.09,245.89,464.09,254.11,459.04,259.15z"/>
		<g>
			<g>
				<path class="st0" d="M243.67,70.02L221.09,92.6l53.28,53.28L169.32,250.93l26.66,26.66l105.05-105.05l53.14,53.14l22.58-22.57
					L243.67,70.02z"/>
			</g>
			<g>
				<path class="st1" d="M330.4,249.07l-26.66-26.66L198.69,327.46l-53.15-53.14l-22.57,22.57l133.08,133.08l22.57-22.57
					l-53.27-53.28L330.4,249.07z"/>
			</g>
			<path class="st0" d="M300.2,206.14l-1.88,1.88l-1.83,1.83l-44.52,44.52l-3.53-3.54l46.34-46.34l1.89-1.89
				c0.29,0.78,0.76,1.52,1.39,2.15S299.42,205.85,300.2,206.14z"/>
			<path class="st0" d="M372.61,267.01l-0.17,0.17l-3.16,3.16l-0.2,0.2l-1.78-1.78l-58.91-58.91l-3.71-3.71
				c0.78-0.3,1.51-0.76,2.14-1.39c0.62-0.62,1.09-1.35,1.4-2.14l1.88,1.88l1.82,1.82l58.91,58.92L372.61,267.01z"/>
			<path class="st1" d="M193.97,297.06l1.88,1.88c-0.79,0.31-1.52,0.78-2.14,1.4s-1.09,1.34-1.39,2.14l-1.88-1.88l-1.83-1.83
				l-61.01-61.01l1.77-1.77c0.11-0.11,0.21-0.21,0.31-0.32l1.45-1.45L193.97,297.06z"/>
			<path class="st1" d="M251.97,254.37l-44.39,44.38l-1.83,1.84l-1.88,1.87c-0.3-0.79-0.77-1.51-1.39-2.13s-1.35-1.1-2.15-1.4
				l1.88-1.88l1.83-1.83l44.4-44.39L251.97,254.37z"/>
			<g>
				<path class="st2" d="M205.75,300.6c-0.39-0.73-0.89-1.41-1.51-2.03c-0.61-0.62-1.3-1.12-2.03-1.51c-2.56-1.39-5.68-1.38-8.24,0
					c-0.72,0.39-1.41,0.9-2.02,1.51c-0.62,0.62-1.12,1.3-1.51,2.03c-1.78,3.3-1.27,7.49,1.51,10.27c3.39,3.39,8.9,3.39,12.29,0
					C207.02,308.08,207.53,303.89,205.75,300.6z M202.48,309.1c-1.17,1.17-2.73,1.82-4.39,1.82c-1.65,0-3.21-0.65-4.38-1.82
					s-1.81-2.73-1.81-4.38c0-0.78,0.14-1.54,0.42-2.24c0.3-0.8,0.77-1.52,1.39-2.14s1.35-1.09,2.14-1.4
					c0.7-0.28,1.46-0.42,2.24-0.42c0.78,0,1.54,0.14,2.24,0.42c0.8,0.3,1.53,0.78,2.15,1.4s1.09,1.34,1.39,2.13
					c0.28,0.7,0.42,1.46,0.42,2.25C204.29,306.37,203.65,307.93,202.48,309.1z"/>
				<path class="st1" d="M207.58,298.75c-0.44-0.7-0.97-1.36-1.57-1.96c-0.6-0.6-1.26-1.12-1.97-1.57
					c-1.76-1.11-3.81-1.71-5.95-1.71s-4.18,0.6-5.94,1.72c-0.71,0.44-1.37,0.96-1.97,1.56c-0.6,0.6-1.13,1.27-1.57,1.97
					c-1.12,1.77-1.71,3.81-1.71,5.95c0,2.99,1.16,5.8,3.28,7.92c2.11,2.11,4.92,3.28,7.91,3.28c3,0,5.81-1.17,7.92-3.28
					c2.12-2.12,3.28-4.93,3.28-7.92C209.29,302.57,208.7,300.52,207.58,298.75z M193.71,309.1c-1.17-1.17-1.81-2.73-1.81-4.38
					c0-0.78,0.14-1.54,0.42-2.24c0.3-0.8,0.77-1.52,1.39-2.14s1.35-1.09,2.14-1.4c0.7-0.28,1.46-0.42,2.24-0.42
					c0.78,0,1.54,0.14,2.24,0.42c0.8,0.3,1.53,0.78,2.15,1.4s1.09,1.34,1.39,2.13c0.28,0.7,0.42,1.46,0.42,2.25
					c0,1.65-0.64,3.21-1.81,4.38c-1.17,1.17-2.73,1.82-4.39,1.82C196.44,310.92,194.88,310.26,193.71,309.1z"/>
			</g>
			<g>
				<path class="st2" d="M129.37,223.68c-3.4-3.39-8.91-3.39-12.3,0c-3.4,3.4-3.4,8.9,0,12.3c3.39,3.4,8.9,3.4,12.3,0
					c0.11-0.11,0.21-0.21,0.31-0.32C132.76,232.24,132.65,226.98,129.37,223.68z M127.6,234.21c-2.42,2.42-6.35,2.42-8.77,0
					c-2.41-2.41-2.41-6.34,0-8.76c2.42-2.42,6.35-2.42,8.77,0C130.01,227.87,130.01,231.81,127.6,234.21z"/>
				<path class="st1" d="M131.13,221.92c-2.18-2.18-5.04-3.27-7.91-3.27s-5.73,1.09-7.92,3.27c-4.37,4.37-4.37,11.47,0,15.84
					c2.18,2.18,5.05,3.27,7.92,3.27c2.06,0,4.13-0.57,5.94-1.71c0.7-0.43,1.36-0.95,1.97-1.56c0.61-0.61,1.13-1.27,1.57-1.97
					C135.42,231.46,134.89,225.68,131.13,221.92z M118.83,234.21c-2.41-2.41-2.41-6.34,0-8.76c2.42-2.42,6.35-2.42,8.77,0
					c2.41,2.42,2.41,6.35,0,8.76C125.18,236.63,121.25,236.63,118.83,234.21z"/>
			</g>
			<g>
				<path class="st2" d="M308.59,194.23c-3.4-3.4-8.9-3.4-12.3,0c-2.79,2.78-3.29,6.98-1.51,10.27c0.39,0.73,0.9,1.41,1.51,2.02
					c0.62,0.62,1.3,1.12,2.03,1.51c2.57,1.38,5.67,1.38,8.24,0c0.73-0.39,1.41-0.89,2.03-1.51c0.61-0.61,1.12-1.29,1.51-2.02
					C311.87,201.2,311.37,197,308.59,194.23z M306.82,204.75c-0.63,0.63-1.36,1.09-2.14,1.39c-1.44,0.56-3.05,0.56-4.48,0
					c-0.78-0.3-1.51-0.76-2.14-1.39s-1.1-1.37-1.39-2.15c-0.87-2.22-0.4-4.83,1.39-6.62c2.41-2.41,6.34-2.41,8.76,0
					c1.17,1.17,1.82,2.73,1.82,4.39c0,0.78-0.14,1.54-0.42,2.24C307.91,203.4,307.44,204.13,306.82,204.75z"/>
				<path class="st0" d="M310.36,192.45c-2.19-2.19-5.05-3.28-7.92-3.28s-5.73,1.09-7.92,3.28c-3.75,3.75-4.27,9.54-1.56,13.86
					c0.43,0.7,0.95,1.36,1.56,1.97s1.27,1.14,1.97,1.57c1.81,1.14,3.88,1.71,5.95,1.71s4.14-0.57,5.95-1.71
					c0.7-0.43,1.36-0.96,1.97-1.57c0.6-0.61,1.13-1.26,1.56-1.97c1.12-1.76,1.72-3.8,1.72-5.94
					C313.64,197.37,312.47,194.56,310.36,192.45z M308.22,202.62c-0.31,0.79-0.78,1.52-1.4,2.14c-0.63,0.63-1.36,1.09-2.14,1.39
					c-1.44,0.56-3.05,0.56-4.48,0c-0.78-0.3-1.51-0.76-2.14-1.39s-1.1-1.37-1.39-2.15c-0.87-2.22-0.4-4.83,1.39-6.62
					c2.41-2.41,6.34-2.41,8.76,0c1.17,1.17,1.82,2.73,1.82,4.39C308.64,201.15,308.5,201.92,308.22,202.62z"/>
			</g>
			<g>
				<path class="st2" d="M382.93,268.56c-2.84-2.84-7.17-3.3-10.49-1.38c-0.65,0.37-1.25,0.83-1.8,1.38c-0.54,0.54-1,1.14-1.36,1.78
					c-1.95,3.33-1.5,7.67,1.36,10.52c3.39,3.4,8.9,3.4,12.29,0C386.33,277.48,386.33,271.96,382.93,268.56z M381.17,279.1
					c-1.17,1.17-2.73,1.82-4.39,1.82c-1.65,0-3.21-0.65-4.38-1.82c-2.41-2.41-2.41-6.34,0-8.76c1.17-1.17,2.73-1.81,4.38-1.81
					c1.66,0,3.22,0.64,4.39,1.81C383.58,272.75,383.58,276.68,381.17,279.1z"/>
				<path class="st0" d="M384.7,266.81c-2.11-2.12-4.92-3.28-7.92-3.28c-2.14,0-4.19,0.59-5.95,1.71c-0.7,0.44-1.36,0.97-1.96,1.57
					c-0.61,0.61-1.13,1.26-1.57,1.96c-2.72,4.32-2.19,10.11,1.57,13.87c2.11,2.11,4.92,3.28,7.91,3.28c3,0,5.81-1.17,7.92-3.28
					C389.07,278.26,389.07,271.17,384.7,266.81z M372.4,279.1c-2.41-2.41-2.41-6.34,0-8.76c1.17-1.17,2.73-1.81,4.38-1.81
					c1.66,0,3.22,0.64,4.39,1.81c2.41,2.42,2.41,6.35,0,8.76c-1.17,1.17-2.73,1.82-4.39,1.82
					C375.13,280.92,373.57,280.26,372.4,279.1z"/>
			</g>
		</g>
	</g>
</g>
</svg>
